<svg width="24" height="24" viewBox="0 0 24 24" fill="none" xmlns="http://www.w3.org/2000/svg">
<path d="M23.3863 2.16121V21.8391C23.3863 22.289 23.2075 22.7205 22.8894 23.0386C22.5713 23.3567 22.1398 23.5354 21.6899 23.5354H2.01204C1.56214 23.5354 1.13066 23.3567 0.812528 23.0386C0.494398 22.7205 0.315674 22.289 0.315674 21.8391L0.315674 2.16121C0.315674 1.71131 0.494398 1.27983 0.812528 0.961698C1.13066 0.643568 1.56214 0.464844 2.01204 0.464844L21.6899 0.464844C22.1398 0.464844 22.5713 0.643568 22.8894 0.961698C23.2075 1.27983 23.3863 1.71131 23.3863 2.16121ZM7.10114 9.28595H3.70841V20.1427H7.10114V9.28595ZM7.40649 5.55395C7.40828 5.29731 7.3595 5.04284 7.26294 4.80506C7.16638 4.56728 7.02393 4.35085 6.84372 4.16812C6.66352 3.98539 6.44908 3.83995 6.21267 3.7401C5.97625 3.64024 5.72248 3.58794 5.46585 3.58616H5.40478C4.88289 3.58616 4.38237 3.79348 4.01334 4.16251C3.64431 4.53154 3.43699 5.03206 3.43699 5.55395C3.43699 6.07584 3.64431 6.57635 4.01334 6.94538C4.38237 7.31441 4.88289 7.52173 5.40478 7.52173C5.66143 7.52805 5.91681 7.48373 6.15632 7.39131C6.39584 7.29889 6.6148 7.16019 6.80069 6.98312C6.98658 6.80605 7.13576 6.59408 7.23971 6.35934C7.34365 6.12459 7.40033 5.87167 7.40649 5.61502V5.55395ZM19.9935 13.5472C19.9935 10.2834 17.9172 9.01454 15.8544 9.01454C15.179 8.98072 14.5065 9.12457 13.9041 9.43175C13.3016 9.73893 12.7903 10.1987 12.421 10.7652H12.326V9.28595H9.13678V20.1427H12.5295V14.3683C12.4805 13.7769 12.6668 13.19 13.0479 12.7352C13.4291 12.2803 13.9743 11.9942 14.5652 11.9391H14.6941C15.773 11.9391 16.5737 12.6176 16.5737 14.3276V20.1427H19.9664L19.9935 13.5472Z" fill="white"/>
</svg>
